<svg xmlns="http://www.w3.org/2000/svg" xmlns:xlink="http://www.w3.org/1999/xlink" width="148.248" height="28.589" viewBox="0 0 148.248 28.589"><defs><linearGradient id="a" x1="0.209" y1="0.207" x2="0.634" y2="0.441" gradientUnits="objectBoundingBox"><stop offset="0" stop-color="#249361"/><stop offset="1" stop-color="#3ecf8e"/></linearGradient><linearGradient id="b" x1="0.02" y1="-0.132" x2="0.214" y2="0.347" gradientUnits="objectBoundingBox"><stop offset="0" stop-opacity="0.2"/><stop offset="1" stop-opacity="0"/></linearGradient></defs><path d="M168.356,12.559c3.674,0,5.792,2.81,5.792,6.54,0,3.806-2.373,6.617-5.919,6.617a4.451,4.451,0,0,1-3.583-1.478l-.041-.055v6.08h-3.393V12.84H164.5v1.533A4.388,4.388,0,0,1,168.356,12.559Zm-29.8-.1a4.739,4.739,0,0,1,4.457,2.226l.058.106h0l.053.106q.026.053.049.105l.046.1h0l.042.1h0l.038.1.018.051.033.1h0l.03.1h0l.026.1.012.049.021.1h0l.018.094h0l.014.092h0l.012.09-2.832.639a1.914,1.914,0,0,0-2.067-1.686,1.443,1.443,0,0,0-1.608,1.252c0,.594.431.972,1.084,1.111l.064.013,1.786.383c2.475.511,3.725,2.018,3.725,3.858,0,2.044-1.582,4.139-4.874,4.139a5.115,5.115,0,0,1-4.612-2.187l-.067-.108q-.032-.054-.063-.108l-.058-.108q-.043-.081-.08-.162l-.049-.108c-.016-.036-.03-.071-.045-.107l-.041-.106h0l-.038-.105-.017-.052-.032-.1h0l-.029-.1h0l-.025-.1h0l-.022-.1h0l-.019-.1h0l-.016-.094h0l-.012-.092h0l-.005-.045,2.909-.639a2.089,2.089,0,0,0,2.3,1.916c1.123,0,1.659-.588,1.659-1.252,0-.546-.362-1-1.273-1.209l-.08-.018-1.659-.383c-2.424-.536-3.521-1.993-3.521-3.755C133.859,14.321,135.849,12.457,138.554,12.457Zm85.371,0a4.757,4.757,0,0,1,4.427,2.173l.059.106c.058.106.109.211.155.316l.044.1h0l.04.1q.029.078.053.154l.031.1.014.05.026.1.012.049.021.1c0,.016.006.032.009.047l.016.093.007.046.011.09-2.832.639L226,16.636a2.151,2.151,0,0,0-.052-.221l-.029-.09a1.91,1.91,0,0,0-1.973-1.289,1.443,1.443,0,0,0-1.607,1.252c0,.594.431.972,1.084,1.111l.064.013,1.786.383c2.475.511,3.725,2.018,3.725,3.858,0,2.044-1.582,4.139-4.874,4.139a5.134,5.134,0,0,1-4.577-2.133l-.069-.108h0l-.065-.108h0l-.061-.108h0l-.056-.108q-.041-.081-.077-.162l-.047-.107h0l-.043-.107-.02-.053-.038-.105h0l-.034-.1h0l-.031-.1L219,22.436l-.025-.1h0l-.022-.1h0l-.019-.1h0l-.016-.094h0l-.013-.092h0l0-.045,2.909-.639a2.088,2.088,0,0,0,2.3,1.916c1.123,0,1.659-.588,1.659-1.252,0-.546-.362-1-1.273-1.209l-.079-.018-1.659-.383c-2.424-.536-3.521-1.993-3.521-3.755C219.23,14.321,221.22,12.457,223.925,12.457Zm12.988,0c3.879,0,6.2,2.478,6.2,6.514l0,.175h0l-.005.172h0l-.008.164h0l-.018.285h0l-.018.243h0v.008H234.08a3.058,3.058,0,0,0,3.164,2.861,2.768,2.768,0,0,0,2.833-1.849l.025-.067,2.832.843a5.655,5.655,0,0,1-5.716,3.985,6.363,6.363,0,0,1-6.482-6.719A6.307,6.307,0,0,1,236.912,12.457Zm-55.2,0c3.781,0,5.306,2.029,5.449,4.4l.007.15c0,.05,0,.1,0,.151v6.35h0l0,.191h0l.007.2h0l.01.2c0,.034,0,.067.006.1l.014.2h0l.016.2h0l.017.189h0l.019.179h0l.02.166h0l.021.149.01.067.01.062H184.21a7.335,7.335,0,0,1-.12-1.138l-.006-.19c0-.062,0-.122,0-.179a4.194,4.194,0,0,1-3.7,1.865c-2.679,0-4.312-1.814-4.312-3.781,0-2.216,1.611-3.464,3.661-3.793l.089-.014,3.087-.46c.715-.1.944-.46.944-.894,0-.894-.689-1.635-2.118-1.635a2.229,2.229,0,0,0-2.392,1.983l-.006.061-3.011-.639C176.529,14.628,178.341,12.457,181.71,12.457Zm29.379,0c3.782,0,5.307,2.029,5.45,4.4l.007.15q0,.075,0,.151v6.35h0l0,.191h0l.007.2c0,.033,0,.067,0,.1l.011.2c0,.034,0,.067.007.1l.014.2h0l.017.193h0l.018.185c0,.03.006.059.009.088l.02.166c.01.079.021.152.031.216l.01.062h-3.113a5.667,5.667,0,0,1-.1-.745l-.014-.2-.005-.1-.008-.194c0-.1,0-.187,0-.273a4.193,4.193,0,0,1-3.7,1.865c-2.679,0-4.312-1.814-4.312-3.781,0-2.216,1.612-3.464,3.662-3.793l.089-.014,3.087-.46c.715-.1.944-.46.944-.894,0-.894-.689-1.635-2.118-1.635a2.229,2.229,0,0,0-2.392,1.983l-.006.061L205.7,16.6C205.909,14.628,207.72,12.457,211.088,12.457Zm-61.562.383v7.255a2.339,2.339,0,1,0,4.669.126V12.84h3.394v10.3q0,.108,0,.214l0,.21h0l.006.2h0l.007.2h0l.014.286h0l.011.181h0l.018.255h0l.019.233h0l.025.271h0l.019.171h0l.006.05h-3.241l-.008-.043h0l-.016-.1c-.005-.037-.01-.077-.015-.119l-.014-.134c0-.023,0-.047-.007-.072l-.012-.151h0l-.011-.159h0l-.008-.164c0-.028,0-.055,0-.083l0-.166c0-.055,0-.11,0-.163a3.965,3.965,0,0,1-3.471,1.686,4.618,4.618,0,0,1-4.771-4.868V12.84Zm44.407-5.927v7.306a4.464,4.464,0,0,1,3.8-1.712c3.674,0,5.792,2.836,5.792,6.566,0,3.806-2.347,6.642-5.92,6.642a4.271,4.271,0,0,1-3.683-1.773l-.042-.067v1.533h-3.292V6.913ZM183.853,20.325v-.562l-2.832.434a1.586,1.586,0,0,0-1.557,1.584,1.474,1.474,0,0,0,1.633,1.456,2.535,2.535,0,0,0,2.755-2.817Zm29.379,0v-.562L210.4,20.2a1.586,1.586,0,0,0-1.557,1.584,1.474,1.474,0,0,0,1.633,1.456,2.535,2.535,0,0,0,2.755-2.817ZM167.693,15.6c-1.735,0-3.138,1.3-3.138,3.525s1.4,3.551,3.138,3.551,3.113-1.3,3.113-3.551C170.806,16.9,169.428,15.6,167.693,15.6Zm29.328-.051c-1.709,0-3.138,1.252-3.138,3.551,0,2.274,1.429,3.577,3.138,3.577,1.735,0,3.113-1.277,3.113-3.577S198.756,15.548,197.021,15.548Zm39.942-.332a2.72,2.72,0,0,0-2.8,2.419l0,.059h5.614A2.527,2.527,0,0,0,236.963,15.216Z" transform="translate(-94.865 -4.911)" fill="#1f1f1f"/><g transform="translate(0 0)"><path d="M50.075,53.089a1.25,1.25,0,0,1-2.229-.759l-.257-17.177h11.55A2.5,2.5,0,0,1,61.1,39.208Z" transform="translate(-33.81 -24.975)" fill="url(#a)"/><path d="M50.075,53.089a1.25,1.25,0,0,1-2.229-.759l-.257-17.177h11.55A2.5,2.5,0,0,1,61.1,39.208Z" transform="translate(-33.81 -24.975)" fill="url(#b)"/><path d="M11.568.475a1.25,1.25,0,0,1,2.229.759L13.91,18.41H2.5A2.5,2.5,0,0,1,.547,14.356Z" transform="translate(0 0)" fill="#3ecf8e"/></g></svg>