<svg xmlns="http://www.w3.org/2000/svg" xmlns:xlink="http://www.w3.org/1999/xlink" width="101.287" height="54.012" viewBox="0 0 101.287 54.012"><defs><linearGradient id="a" x1="0.437" y1="0.219" x2="0.5" y2="1" gradientUnits="objectBoundingBox"><stop offset="0" stop-color="#f9f0ff"/><stop offset="1" stop-color="#e2f1ff"/></linearGradient><clipPath id="b"><path d="M0-170.334l101.253-8.827.034-45.185L0-212.66Z" transform="translate(-74 2114.4)" opacity="0.47" fill="url(#a)"/></clipPath></defs><g transform="translate(74 -1890.054)" clip-path="url(#b)"><g transform="translate(-74 1903.35)"><g transform="translate(29.793 6.232)"><path d="M1.688,37.213V24.75h1.6l7.616,10.03V24.75H12.43V37.213h-1.6L3.211,27.084V37.213Z" transform="translate(-1.688 -23.108)" fill="#b52e31" fill-rule="evenodd"/><path d="M198.448,35.411a9.25,9.25,0,0,1-3.244.574q-6.766,0-6.766-6.489,0-6.143,6.528-6.152a11.57,11.57,0,0,1,3.482.514v1.385a9.055,9.055,0,0,0-3.3-.613c-3.4,0-5.1,1.622-5.1,4.827,0,3.462,1.682,5.183,5.025,5.183a8.711,8.711,0,0,0,1.78-.218V30.248h1.6v5.163Z" transform="translate(-175.302 -21.801)" fill="#b52e31" fill-rule="evenodd"/><path d="M367.313,32.406V24.75h1.6v7.656c0,2.394,1.187,3.6,3.581,3.6,2.374,0,3.581-1.207,3.581-3.6V24.75h1.6v7.656c0,3.264-1.721,4.906-5.183,4.906s-5.183-1.642-5.183-4.906Z" transform="translate(-341.595 -23.108)" fill="#b52e31" fill-rule="evenodd"/><path d="M557.071,24.75V35.907H563.6v1.306h-8.131V24.75Z" transform="translate(-516.517 -23.108)" fill="#b52e31" fill-rule="evenodd"/><path d="M681.744,15.511h-1.682l6.192-14.105,6.192,14.105h-1.78l-1.6-3.917h-4.115l.435-1.306h3.145L686.2,4.651l-4.451,10.861Z" transform="translate(-632.347 -1.406)" fill="#b52e31" fill-rule="evenodd"/><path d="M880.594,37.213V24.75h5.322c2.374,0,3.561.989,3.561,2.987,0,1.622-1.167,2.829-3.482,3.6l4.273,5.875h-2.117l-3.957-5.6V30.566c2.374-.376,3.581-1.286,3.581-2.75,0-1.147-.653-1.721-1.978-1.721h-3.561V37.213Z" transform="translate(-818.773 -23.108)" fill="#b52e31" fill-rule="evenodd"/></g><path d="M0,4.55,12.76,0l13.1,4.471L23.739,21.346,12.76,27.419l-10.8-5.994L0,4.55Z" fill="#e23237" fill-rule="evenodd"/><path d="M194.5,4.471,181.406,0V27.419l10.979-6.073L194.5,4.471Z" transform="translate(-168.646)" fill="#b52e31" fill-rule="evenodd"/><path d="M76.578,45.563h0L68.625,63.248l2.967-.059,1.6-4h7.1l1.741,4.036,2.829.059L76.578,45.563Zm.02,5.678,2.69,5.618H74.243L76.6,51.24Z" transform="translate(-63.798 -42.358)" fill="#fff" fill-rule="evenodd"/></g></g></svg>