<svg xmlns="http://www.w3.org/2000/svg" width="129.208" height="35.794" viewBox="0 0 129.208 35.794"><path d="M166.636,56.675h-5.584L160,59.284a.52.52,0,0,1-.566.4.584.584,0,0,1-.4-.164.341.341,0,0,1-.164-.338V59.12a.31.31,0,0,1,.082-.255l3.8-9.353a2.538,2.538,0,0,1,.484-.821.967.967,0,0,1,1.3,0,2.317,2.317,0,0,1,.484.821l3.8,9.353c0,.082.082.164.082.255a.585.585,0,0,1-.164.4.629.629,0,0,1-.4.164.557.557,0,0,1-.566-.4Zm-2.738-6.99-2.418,6.1h4.845Zm7.5,8.778c-.082-.082-.082-.082-.082-.164a.661.661,0,0,1,.255-.4.448.448,0,0,1,.325-.167l.076,0c.082,0,.164,0,.164.082a3.485,3.485,0,0,0,1.287.739,3.651,3.651,0,0,0,1.706.319,3.523,3.523,0,0,0,1.935-.484,1.661,1.661,0,0,0,.739-1.478,2.525,2.525,0,0,0-.082-.821,1.624,1.624,0,0,0-.4-.566,1.707,1.707,0,0,0-.657-.4,7.165,7.165,0,0,0-.913-.319l-2.026-.657A4.289,4.289,0,0,1,171.9,53.1a2.336,2.336,0,0,1-.657-1.706,2.573,2.573,0,0,1,1.67-2.457l.155-.052A4.745,4.745,0,0,1,175,48.563a5.959,5.959,0,0,1,2.026.4,5.541,5.541,0,0,1,1.451.821.666.666,0,0,1,.164.319.365.365,0,0,1-.106.271l-.059.048a.666.666,0,0,1-.319.164c-.082,0-.256,0-.319-.082a6.809,6.809,0,0,0-1.141-.657,5.045,5.045,0,0,0-1.624-.319,3.522,3.522,0,0,0-1.934.484,1.579,1.579,0,0,0-.739,1.3,1.423,1.423,0,0,0,.4,1.049,5.312,5.312,0,0,0,1.369.739l2.026.657.34.137h0l.463.178h0l.246.087h0a2.739,2.739,0,0,1,.8.566,1.827,1.827,0,0,1,.5.664l.061.157a2.142,2.142,0,0,1,.164,1.049,2.737,2.737,0,0,1-1.049,2.363,4.718,4.718,0,0,1-2.993.821A4.663,4.663,0,0,1,171.4,58.463Zm10.676,0c-.082-.082-.082-.082-.082-.164a.661.661,0,0,1,.255-.4.448.448,0,0,1,.325-.167l.076,0c.082,0,.164,0,.164.082a3.487,3.487,0,0,0,1.287.739,3.649,3.649,0,0,0,1.706.319,3.523,3.523,0,0,0,1.935-.484,1.661,1.661,0,0,0,.739-1.478,2.525,2.525,0,0,0-.082-.821,1.624,1.624,0,0,0-.4-.566,1.707,1.707,0,0,0-.657-.4,7.167,7.167,0,0,0-.913-.319l-1.953-.657A4.289,4.289,0,0,1,182.65,53.1a2.336,2.336,0,0,1-.656-1.534v-.172a2.573,2.573,0,0,1,1.825-2.509,4.745,4.745,0,0,1,1.934-.319,5.958,5.958,0,0,1,2.026.4,5.537,5.537,0,0,1,1.451.821.666.666,0,0,1,.164.319.366.366,0,0,1-.105.271l-.059.048a.666.666,0,0,1-.319.164c-.082,0-.256,0-.319-.082a6.808,6.808,0,0,0-1.14-.657,5.047,5.047,0,0,0-1.624-.319,3.522,3.522,0,0,0-1.934.484,1.579,1.579,0,0,0-.739,1.3,1.424,1.424,0,0,0,.411,1.058,5.312,5.312,0,0,0,1.369.739l2.026.657.5.2h0l.3.114h0l.246.087h0a2.739,2.739,0,0,1,.8.566,1.824,1.824,0,0,1,.5.664l.062.157a2.146,2.146,0,0,1,.164,1.049,2.738,2.738,0,0,1-1.049,2.363,4.718,4.718,0,0,1-2.993.821A4.626,4.626,0,0,1,182.075,58.463Zm10.977,1.077a.447.447,0,0,1-.164-.4V49.1a.583.583,0,0,1,.164-.4.341.341,0,0,1,.337-.164h5.876a.584.584,0,0,1,.4.164.665.665,0,0,1,.164.319.365.365,0,0,1-.164.319.775.775,0,0,1-.4.164h-5.183v3.9h4.927a.584.584,0,0,1,.4.164.665.665,0,0,1,.164.319.365.365,0,0,1-.106.271l-.059.048a.63.63,0,0,1-.4.164h-4.927V58.6h5.411a.584.584,0,0,1,.4.164.666.666,0,0,1,.164.319.365.365,0,0,1-.164.319.775.775,0,0,1-.4.164h-5.977C193.39,59.686,193.216,59.622,193.052,59.54Zm15.929-.185-.089-.061a.73.73,0,0,1-.319-.4l-4.024-8.869V59.23a.365.365,0,0,1-.105.271l-.059.048a.557.557,0,0,1-.735.06l-.068-.06a.43.43,0,0,1-.164-.319V49.457a.759.759,0,0,1,.244-.6l.075-.061a.912.912,0,0,1,.657-.255c.484,0,.8.255,1.05.821l3.96,8.7,3.96-8.7c.255-.484.566-.821,1.049-.821a.912.912,0,0,1,.657.255.967.967,0,0,1,.319.657V59.23a.365.365,0,0,1-.106.271l-.059.048a.629.629,0,0,1-.4.164.584.584,0,0,1-.4-.164.43.43,0,0,1-.164-.319V50.023l-4.042,8.869a.913.913,0,0,1-.319.4l-.17.093a.461.461,0,0,1-.231.071.785.785,0,0,1-.514-.1Zm10.1.185a.341.341,0,0,1-.164-.338V49.1a.585.585,0,0,1,.164-.4.913.913,0,0,1,.484-.164h2.993c2.591,0,3.878.967,3.878,2.847a2.644,2.644,0,0,1-.657,1.706,2.445,2.445,0,0,1-1.529.806l-.178.016a3.021,3.021,0,0,1,2.026.821,2.655,2.655,0,0,1,.739,1.962,2.736,2.736,0,0,1-.255,1.141,3.266,3.266,0,0,1-.657.967,2.739,2.739,0,0,1-1.141.657,5.2,5.2,0,0,1-1.706.255h-3.65a.638.638,0,0,1-.271-.11Zm3.3-6.1a3.44,3.44,0,0,0,2.026-.484,1.716,1.716,0,0,0,.667-1.394l-.01-.148a2.48,2.48,0,0,0-.164-.821,1.624,1.624,0,0,0-.4-.566,1.086,1.086,0,0,0-.566-.319,2.335,2.335,0,0,0-.739-.164h-3.23v4.015l2.418-.082Zm.4,5.283a3.44,3.44,0,0,0,2.026-.484,2.081,2.081,0,0,0,.657-1.706,1.734,1.734,0,0,0-.8-1.624,4.563,4.563,0,0,0-2.418-.484h-2.19v4.316Zm7.121.881-.086-.06a.341.341,0,0,1-.164-.338V49.1a.585.585,0,0,1,.164-.4.913.913,0,0,1,.484-.164.584.584,0,0,1,.4.164.341.341,0,0,1,.164.338v9.681h5.183a.584.584,0,0,1,.4.164.666.666,0,0,1,.164.319.365.365,0,0,1-.105.271l-.059.048a.629.629,0,0,1-.4.164h-5.748a.657.657,0,0,1-.4-.086Zm15.837-2.925h-5.612l-1.049,2.61a.52.52,0,0,1-.566.4.584.584,0,0,1-.4-.164.341.341,0,0,1-.164-.338V59.12a.31.31,0,0,1,.082-.255l3.8-9.353a2.538,2.538,0,0,1,.484-.821.967.967,0,0,1,1.3,0,2.317,2.317,0,0,1,.484.821l3.8,9.353c0,.082.082.164.082.255a.585.585,0,0,1-.164.4.629.629,0,0,1-.4.164.557.557,0,0,1-.566-.4Zm-2.737-6.99-2.418,6.1h4.845Z" transform="translate(-118.776 -36.214)" fill="#263238"/><path d="M29.254,6.682,19.062.742A5.9,5.9,0,0,0,16,0,6.2,6.2,0,0,0,12.93.742L2.893,6.682A6.579,6.579,0,0,0,0,11.966V23.828a6.579,6.579,0,0,0,2.911,5.283l10.11,5.94a5.833,5.833,0,0,0,2.993.739,5.669,5.669,0,0,0,2.993-.739L29.2,29.13a7.063,7.063,0,0,0,3.075-5.283V11.984A6.443,6.443,0,0,0,29.254,6.682ZM23.36,23.846a.484.484,0,0,1-.319.082.849.849,0,0,1-.657-.4l-4.042-8.148L14.3,23.509a.8.8,0,0,1-.657.4c-.082,0-.255,0-.319-.082a.748.748,0,0,1-.3-1.013l4.562-9.034-1.542-3.075L9.654,23.554A.722.722,0,1,1,8.367,22.9L15.375,8.79a.62.62,0,0,1,.657-.4.766.766,0,0,1,.657.4l1.661,3.431.812,1.533,4.562,9.125A.748.748,0,0,1,23.36,23.846Z" transform="translate(0 0)" fill="#263238"/></svg>