<svg xmlns="http://www.w3.org/2000/svg" xmlns:xlink="http://www.w3.org/1999/xlink" width="148.248" height="25.923" viewBox="0 0 148.248 25.923"><defs><linearGradient id="a" x1="0.359" y1="0.072" x2="0.603" y2="1.16" gradientUnits="objectBoundingBox"><stop offset="0" stop-color="#66e3ff"/><stop offset="1" stop-color="#7064f9"/></linearGradient><linearGradient id="b" x1="0.392" y1="0" x2="0.55" y2="0.992" xlink:href="#a"/></defs><path d="M123.584,16.535a4.071,4.071,0,0,0-3.666,1.821V12.112h-2.554V28.67h2.554V22.331c0-2.413,1.324-3.406,3-3.406a2.465,2.465,0,0,1,2.649,2.743v7h2.553V21.408C128.124,18.333,126.233,16.535,123.584,16.535Zm12.28,0A5.967,5.967,0,0,1,141.8,22.78a6.554,6.554,0,0,1-.06.808l-.035.256h-9.411a3.554,3.554,0,0,0,3.784,2.791,3.644,3.644,0,0,0,2.961-1.344l.089-.123,2.1,1.23a5.972,5.972,0,0,1-5.179,2.578,6.055,6.055,0,0,1-6.432-6.221A6.032,6.032,0,0,1,135.864,16.535Zm-.024,2.318a3.424,3.424,0,0,0-3.533,2.733l-.039.175h6.952A3.29,3.29,0,0,0,135.84,18.853Zm12.772-2.318a4.917,4.917,0,0,1,4.019,1.829l.12.158v-1.68H155.3V28.67h-2.554v-1.7a4.858,4.858,0,0,1-4.138,2.01,6.044,6.044,0,0,1-5.888-6.221A6.028,6.028,0,0,1,148.612,16.535Zm.4,2.436a3.655,3.655,0,0,0-3.736,3.785,3.65,3.65,0,0,0,3.56,3.782l.176,0a3.656,3.656,0,0,0,3.737-3.785A3.655,3.655,0,0,0,149.014,18.972Zm20.594-6.86V28.67h-2.554v-1.7a4.858,4.858,0,0,1-4.139,2.01,6.044,6.044,0,0,1-5.888-6.221,6.028,6.028,0,0,1,5.888-6.221,4.916,4.916,0,0,1,4.019,1.829l.12.158v-6.41Zm-6.29,6.86a3.655,3.655,0,0,0-3.737,3.785,3.65,3.65,0,0,0,3.561,3.782l.176,0a3.656,3.656,0,0,0,3.736-3.785A3.654,3.654,0,0,0,163.318,18.972Zm8.675,9.7h2.555V11.4h-2.555ZM182.5,16.535a5.967,5.967,0,0,1,5.936,6.244,6.555,6.555,0,0,1-.06.808l-.034.256h-9.412a3.554,3.554,0,0,0,3.783,2.791,3.643,3.643,0,0,0,2.962-1.344l.089-.123,2.1,1.23a5.973,5.973,0,0,1-5.179,2.578,6.055,6.055,0,0,1-6.431-6.221A6.032,6.032,0,0,1,182.5,16.535Zm-.023,2.318a3.424,3.424,0,0,0-3.533,2.733l-.039.175h6.953A3.29,3.29,0,0,0,182.479,18.853Zm9.446,1.253c0-.851.8-1.253,1.727-1.253a2.3,2.3,0,0,1,2.223,1.348L198.027,19a4.761,4.761,0,0,0-4.375-2.46c-2.412,0-4.328,1.4-4.328,3.619,0,2.155,1.649,2.907,3.267,3.4l.517.152h0l.665.19h0l.314.1c.917.29,1.6.627,1.6,1.316,0,.946-.875,1.325-2.01,1.325a2.6,2.6,0,0,1-2.624-1.7l-2.2,1.277a4.935,4.935,0,0,0,4.824,2.768c2.554,0,4.612-1.277,4.612-3.643,0-2.109-1.479-2.9-3.01-3.393l-.341-.105h0l-1.156-.328h0l-.305-.092c-.842-.266-1.476-.58-1.543-1.2Zm9.593,0c0-.851.8-1.253,1.727-1.253a2.3,2.3,0,0,1,2.222,1.348L207.619,19a4.759,4.759,0,0,0-4.374-2.46c-2.412,0-4.328,1.4-4.328,3.619,0,2.155,1.649,2.907,3.267,3.4l.517.152h0l.665.19h0l.314.1c.917.29,1.6.627,1.6,1.316,0,.946-.875,1.325-2.01,1.325a2.6,2.6,0,0,1-2.625-1.7l-2.2,1.277a4.934,4.934,0,0,0,4.824,2.768c2.554,0,4.611-1.277,4.611-3.643,0-2.109-1.479-2.9-3.01-3.393l-.34-.105h0l-1.156-.328h0l-.305-.092h0l-.288-.1c-.7-.248-1.2-.556-1.255-1.1Z" transform="translate(-83.382 -8.101)" fill="#111827"/><path d="M462.7,14.206a4.932,4.932,0,0,1,4.927,4.7l.005.23v8.221a4.932,4.932,0,0,1-4.7,4.927l-.23.005h-8.219a4.932,4.932,0,0,1-4.926-4.7l-.005-.23V19.139a4.932,4.932,0,0,1,4.7-4.927l.23-.005Zm0,1.644h-8.219a3.288,3.288,0,0,0-3.288,3.288v8.222a3.288,3.288,0,0,0,3.288,3.288H462.7a3.288,3.288,0,0,0,3.288-3.288V19.14A3.288,3.288,0,0,0,462.7,15.85Zm-7.2,3.865V25.01c0,.783.415,1.369,1.5,1.369,1.03,0,1.455-.532,1.493-1.259l0-.11V19.716h1.588v5.42a2.766,2.766,0,0,1-2.914,2.794l-.17,0a2.8,2.8,0,0,1-3.068-2.632l0-.166V19.715Zm7.828,0v8.057h-1.588V19.715Z" transform="translate(-319.386 -10.093)" fill="#111827"/><g transform="translate(0 0)"><path d="M15.224,26.2,31.04,20.923c-.316-1.977-.541-3.3-.8-4.306a3.591,3.591,0,0,0-.591-1.475,3.085,3.085,0,0,0-1.111-.807,3.583,3.583,0,0,0-1.585-.108c-1.181.071-2.732.313-5.188.7s-4,.639-5.15.936a3.592,3.592,0,0,0-1.475.592,3.1,3.1,0,0,0-.806,1.111,3.585,3.585,0,0,0-.108,1.586c.071,1.181.313,2.733.7,5.189.109.689.207,1.3.3,1.861Z" transform="translate(-10.092 -10.094)" fill="url(#a)"/><path d="M.772,14.892C.02,10.141-.357,7.765.458,5.858A7.2,7.2,0,0,1,2.341,3.265C3.9,1.9,6.277,1.526,11.027.773S18.153-.357,20.061.459a7.2,7.2,0,0,1,2.591,1.883c1.364,1.562,1.74,3.938,2.492,8.69s1.129,7.127.314,9.034a7.2,7.2,0,0,1-1.882,2.593c-1.561,1.364-3.937,1.74-8.687,2.493s-7.125,1.129-9.032.314a7.2,7.2,0,0,1-2.591-1.883C1.9,22.019,1.525,19.644.773,14.892ZM9.15,23.329c1.272-.077,2.91-.334,5.335-.718s4.062-.647,5.3-.967a4.935,4.935,0,0,0,2.1-.924,4.627,4.627,0,0,0,1.21-1.667,4.925,4.925,0,0,0,.229-2.285c-.077-1.272-.334-2.911-.718-5.337s-.646-4.063-.966-5.3a4.945,4.945,0,0,0-.924-2.1,4.626,4.626,0,0,0-1.666-1.21,4.925,4.925,0,0,0-2.285-.229c-1.272.077-2.91.334-5.335.718s-4.062.647-5.3.967a4.941,4.941,0,0,0-2.1.924,4.628,4.628,0,0,0-1.21,1.667,4.939,4.939,0,0,0-.228,2.285c.077,1.273.333,2.911.718,5.337s.646,4.063.966,5.3a4.935,4.935,0,0,0,.924,2.1A4.627,4.627,0,0,0,6.866,23.1a4.924,4.924,0,0,0,2.285.229Z" transform="translate(0 0)" fill="url(#b)"/></g></svg>