<svg xmlns="http://www.w3.org/2000/svg" width="146.613" height="28.614" viewBox="0 0 146.613 28.614"><g transform="translate(0 0)"><path d="M45.347,40.55l-.613,1.064a1.034,1.034,0,0,1-.9.518H39.144a1.034,1.034,0,0,1-.9-.518l-.613-1.064Zm1.716-2.979-1.08,1.876H37l-1.08-1.876Zm-1.041-2.913,1.043,1.81H35.917l1.043-1.81ZM43.838,31.9a1.034,1.034,0,0,1,.9.518l.652,1.133H37.595l.652-1.133a1.034,1.034,0,0,1,.9-.518Z" transform="translate(-25.632 -22.768)" fill="#00435b"/><path d="M6.679,8.642a14.207,14.207,0,0,1-.3-5.86A3.771,3.771,0,0,1,7.5.774,3.18,3.18,0,0,1,9.667,0a7.336,7.336,0,0,1,4.365,1.818A19.89,19.89,0,0,1,16,3.576a1.468,1.468,0,0,1,.183-.2A14.145,14.145,0,0,1,21.1.2a3.758,3.758,0,0,1,2.3-.03,3.188,3.188,0,0,1,1.75,1.489,7.367,7.367,0,0,1,.613,4.7,19.927,19.927,0,0,1-.536,2.58,1.465,1.465,0,0,1,.285.064,14.116,14.116,0,0,1,5.206,2.668,3.763,3.763,0,0,1,1.174,1.975,3.191,3.191,0,0,1-.413,2.26,7.342,7.342,0,0,1-3.75,2.875,19.747,19.747,0,0,1-2.454.813,1.472,1.472,0,0,1,.1.3,14.207,14.207,0,0,1,.3,5.86,3.771,3.771,0,0,1-1.121,2.008,3.18,3.18,0,0,1-2.162.774,7.335,7.335,0,0,1-4.365-1.818,19.955,19.955,0,0,1-1.985-1.779,1.466,1.466,0,0,1-.26.3,14.145,14.145,0,0,1-4.919,3.184,3.757,3.757,0,0,1-2.3.03A3.188,3.188,0,0,1,6.8,26.96a7.367,7.367,0,0,1-.613-4.7,20.132,20.132,0,0,1,.564-2.681,1.464,1.464,0,0,1-.313-.067,14.113,14.113,0,0,1-5.206-2.668A3.764,3.764,0,0,1,.059,14.872a3.192,3.192,0,0,1,.413-2.26,7.343,7.343,0,0,1,3.75-2.875A19.922,19.922,0,0,1,6.758,8.9,1.474,1.474,0,0,1,6.679,8.642Z" transform="translate(0 0)" fill="#002b3b"/><path d="M26.96,23.427a.46.46,0,0,1,.528.351l0,.014.026.134q1.256,6.6-1.77,6.6-2.96,0-7.537-5.635a.46.46,0,0,1,.347-.749h.175q1.926.01,3.744-.134Q24.624,23.841,26.96,23.427ZM13.108,20.1l.008.013.081.141q.969,1.685,2.019,3.2Q16.452,25.233,18,27.059a.46.46,0,0,1-.039.634l-.012.01-.1.089q-5.111,4.38-6.644,1.749-1.5-2.575,1.088-9.365a.46.46,0,0,1,.821-.077Zm15.581-6.5.014,0,.128.044q6.309,2.195,4.794,4.824-1.482,2.571-8.616,3.744a.46.46,0,0,1-.471-.687q1.022-1.738,1.841-3.459.929-1.952,1.743-4.189a.46.46,0,0,1,.553-.286Zm-14.857-.737A.46.46,0,0,1,14,13.5q-1.022,1.738-1.841,3.459-.929,1.952-1.743,4.189a.46.46,0,0,1-.567.282l-.014,0L9.7,21.377q-6.309-2.195-4.794-4.824,1.482-2.571,8.616-3.744A.46.46,0,0,1,13.832,12.866Zm13.5-7.206q1.5,2.575-1.088,9.365a.46.46,0,0,1-.821.077l-.008-.013-.081-.141q-.969-1.685-2.019-3.2-1.237-1.782-2.782-3.608a.46.46,0,0,1,.039-.634l.012-.01.1-.089Q25.8,3.029,27.335,5.66ZM12.959,4.615q2.96,0,7.537,5.635a.46.46,0,0,1-.347.749h-.175q-1.926-.01-3.744.134-2.147.171-4.483.585a.46.46,0,0,1-.528-.351l0-.014-.026-.134Q9.933,4.615,12.959,4.615Z" transform="translate(-3.294 -3.294)" fill="#ff4154"/><g transform="translate(10.055 9.193)"><path d="M3.833,0h3.94a1.609,1.609,0,0,1,1.4.808l1.979,3.447a1.609,1.609,0,0,1,0,1.6L9.169,9.3a1.609,1.609,0,0,1-1.4.808H3.833a1.609,1.609,0,0,1-1.4-.808L.46,5.857a1.609,1.609,0,0,1,0-1.6L2.438.808A1.609,1.609,0,0,1,3.833,0Zm3.34,1.041a1.609,1.609,0,0,1,1.4.809l1.38,2.407a1.609,1.609,0,0,1,0,1.6L8.569,8.263a1.609,1.609,0,0,1-1.4.809H4.434a1.609,1.609,0,0,1-1.4-.809L1.659,5.856a1.609,1.609,0,0,1,0-1.6l1.38-2.407a1.609,1.609,0,0,1,1.4-.809ZM6.526,2.179H5.081a1.609,1.609,0,0,0-1.395.807h0L2.957,4.255a1.609,1.609,0,0,0,0,1.6h0l.729,1.269a1.609,1.609,0,0,0,1.395.807H6.526a1.609,1.609,0,0,0,1.395-.807h0L8.65,5.858a1.609,1.609,0,0,0,0-1.6h0L7.921,2.986a1.609,1.609,0,0,0-1.395-.807ZM5.9,3.268A1.609,1.609,0,0,1,7.3,4.074l.1.18a1.609,1.609,0,0,1,0,1.605l-.1.18A1.609,1.609,0,0,1,5.9,6.845H5.7A1.609,1.609,0,0,1,4.31,6.038l-.1-.18a1.609,1.609,0,0,1,0-1.605l.1-.18A1.609,1.609,0,0,1,5.7,3.268ZM5.8,4.341a.715.715,0,1,0,0,1.431h0a.715.715,0,1,0,0-1.431ZM0,5.056H1.288" transform="translate(0 0)" fill="#ffd94c"/></g></g><path d="M135.856,37.691V32.426h2.878l2.707,5.265h3.624l-2.793-5.756a3.985,3.985,0,0,0,1.982-1.769,5.1,5.1,0,0,0,.725-2.579,5.007,5.007,0,0,0-1.2-3.475,4.99,4.99,0,0,0-3.89-1.343h-7.269V37.691Zm4.071-8.335h-4.071V25.839h4.071a1.543,1.543,0,0,1,1.29.5,1.954,1.954,0,0,1,.394,1.247q0,1.769-1.684,1.769Zm9.988,8.591a5.253,5.253,0,0,0,4.242-1.982h0l-1.791-1.791a3.05,3.05,0,0,1-2.451,1.151,2.273,2.273,0,0,1-1.513-.5,1.993,1.993,0,0,1-.64-1.524h6.971a11.248,11.248,0,0,0,.085-1.6,5.1,5.1,0,0,0-1.364-3.837,5.416,5.416,0,0,0-7.323.213,5.944,5.944,0,0,0-1.4,4.157,5.987,5.987,0,0,0,1.386,4.2A4.889,4.889,0,0,0,149.915,37.947Zm1.94-6.971h-4.071a2.063,2.063,0,0,1,.639-1.332,1.962,1.962,0,0,1,1.364-.48,1.866,1.866,0,0,1,2.068,1.812Zm7.366,6.971a3.5,3.5,0,0,0,2.707-1.066h0v.81H165V30.806q0-4.263-4.626-4.263a8.1,8.1,0,0,0-4.669,1.364h0l.959,2.366a6.248,6.248,0,0,1,3.5-1.151,1.96,1.96,0,0,1,1.3.394,1.406,1.406,0,0,1,.469,1.14h0v.6a5.97,5.97,0,0,0-2.388-.384,5.333,5.333,0,0,0-3.091.906,2.952,2.952,0,0,0-1.322,2.59,3.224,3.224,0,0,0,1.141,2.654A4.531,4.531,0,0,0,159.221,37.947Zm.6-2.6q-1.663,0-1.663-.959,0-1.045,1.919-1.045a6.428,6.428,0,0,1,1.855.256h0v.981A3.3,3.3,0,0,1,159.818,35.347Zm11.117,2.6a4.612,4.612,0,0,0,4.8-3.688h0l-2.963-.853a1.88,1.88,0,0,1-1.833,1.577,1.679,1.679,0,0,1-1.407-.757,3.772,3.772,0,0,1,.011-3.954,1.718,1.718,0,0,1,1.439-.767,1.857,1.857,0,0,1,1.791,1.407h0l2.942-.959a4.532,4.532,0,0,0-4.775-3.411,4.744,4.744,0,0,0-3.7,1.545,5.984,5.984,0,0,0-1.4,4.167,5.955,5.955,0,0,0,1.386,4.178A4.784,4.784,0,0,0,170.935,37.947Zm9.071,0a5.6,5.6,0,0,0,2.473-.49h0l.341-2.6a4.5,4.5,0,0,1-1.876.426.638.638,0,0,1-.437-.16.58.58,0,0,1-.181-.458h0V29.506h2.366V26.8h-2.366V22.3l-3.07,1.471V26.8h-1.492v2.707h1.492v5.457Q177.256,37.947,180.006,37.947Zm16.906,1.471,2.387-1.535L198.148,36.2a8.252,8.252,0,0,0,2.11-5.969,10.148,10.148,0,0,0-.373-2.771A8.869,8.869,0,0,0,198.766,25a5.252,5.252,0,0,0-2.068-1.812,6.64,6.64,0,0,0-3.048-.671,6.919,6.919,0,0,0-2.547.448,5.351,5.351,0,0,0-1.887,1.2,6.841,6.841,0,0,0-1.247,1.759A8.489,8.489,0,0,0,187.245,28a11.192,11.192,0,0,0,0,4.455,8.489,8.489,0,0,0,.725,2.078,6.84,6.84,0,0,0,1.247,1.759,5.35,5.35,0,0,0,1.887,1.2,6.92,6.92,0,0,0,2.547.448,7.721,7.721,0,0,0,2.068-.277h0Zm-3.262-4.6a2.8,2.8,0,0,1-2.558-1.524,5.894,5.894,0,0,1-.533-1.46,7.35,7.35,0,0,1-.171-1.6,7.767,7.767,0,0,1,.277-2.1,3.856,3.856,0,0,1,1.055-1.748,2.854,2.854,0,0,1,3.848-.021,3.759,3.759,0,0,1,1.044,1.727,7.921,7.921,0,0,1,.277,2.142,5.9,5.9,0,0,1-.682,3.027h0l-1.194-1.791-2.409,1.556,1.215,1.769h-.107Zm11.288,3.134a3.623,3.623,0,0,0,2.984-1.258h0v1h3.091V26.8h-3.091v5.713a3.044,3.044,0,0,1-.458,1.855,1.7,1.7,0,0,1-1.439.6,1.5,1.5,0,0,1-1.364-.6,3.611,3.611,0,0,1-.384-1.9h0V26.8h-3.091v7.077a4.948,4.948,0,0,0,.352,1.94,3.111,3.111,0,0,0,.927,1.279,3.947,3.947,0,0,0,1.194.65A4.082,4.082,0,0,0,204.938,37.947Zm12.311,0a5.254,5.254,0,0,0,4.242-1.982h0L219.7,34.174a3.05,3.05,0,0,1-2.451,1.151,2.275,2.275,0,0,1-1.514-.5A1.994,1.994,0,0,1,215.1,33.3h6.971a11.3,11.3,0,0,0,.085-1.6,5.1,5.1,0,0,0-1.364-3.837,5.415,5.415,0,0,0-7.322.213,5.942,5.942,0,0,0-1.4,4.157,5.987,5.987,0,0,0,1.386,4.2A4.888,4.888,0,0,0,217.25,37.947Zm1.94-6.971h-4.072a2.065,2.065,0,0,1,.64-1.332,1.961,1.961,0,0,1,1.364-.48,1.866,1.866,0,0,1,2.068,1.812Zm7,6.715v-5.9q0-2.26,1.876-2.26a2.971,2.971,0,0,1,1.94.746h0l.4-2.814a2.857,2.857,0,0,0-2.153-.917,2.144,2.144,0,0,0-1.3.405,2.424,2.424,0,0,0-.767.831h0V26.8H223.1V37.691Zm9.263,4.136,5.8-15.029h-3.176l-2.2,5.82q-.235.64-.341,1.023-.107-.384-.341-1.023h0l-2.217-5.82h-3.2L233.9,37.563l-1.641,4.263Z" transform="translate(-94.641 -15.915)" fill="#00435b"/></svg>